<?xml version="1.0" standalone="no"?>
<!DOCTYPE svg PUBLIC "-//W3C//DTD SVG 20010904//EN"
 "http://www.w3.org/TR/2001/REC-SVG-20010904/DTD/svg10.dtd">
<svg version="1.0" xmlns="http://www.w3.org/2000/svg"
 width="903.000000pt" height="903.000000pt" viewBox="0 0 903.000000 903.000000"
 preserveAspectRatio="xMidYMid meet">
<metadata>
Created by potrace 1.14, written by Peter Selinger 2001-2017
</metadata>
<g transform="translate(0.000000,903.000000) scale(0.100000,-0.100000)"
fill="#000000" stroke="none">
<path d="M8490 8708 c-11 -12 -20 -26 -20 -30 0 -5 -4 -6 -10 -3 -5 3 -10 1
-10 -4 0 -19 -57 -91 -65 -83 -4 4 -6 0 -3 -8 2 -8 -5 -25 -16 -38 -12 -13
-20 -26 -18 -28 1 -3 -8 -15 -20 -27 -13 -12 -24 -29 -26 -37 -2 -8 -9 -18
-15 -22 -7 -4 -7 -8 -2 -8 6 0 6 -3 -1 -8 -6 -4 -25 -34 -44 -67 -19 -33 -38
-63 -43 -66 -5 -4 -6 -12 -3 -18 4 -6 3 -11 -3 -11 -6 0 -20 -21 -32 -47 -12
-27 -27 -51 -33 -55 -6 -4 -8 -8 -3 -8 4 0 0 -11 -9 -25 -9 -14 -13 -25 -9
-25 3 0 -1 -7 -9 -16 -9 -8 -14 -20 -11 -25 4 -5 1 -9 -5 -9 -6 0 -9 -4 -5
-10 3 -5 -3 -18 -15 -30 -12 -12 -15 -20 -7 -20 7 0 8 -3 2 -8 -13 -9 -45 -79
-45 -97 0 -8 -4 -15 -9 -15 -5 0 -13 -15 -16 -32 -4 -18 -12 -36 -17 -39 -5
-3 -11 -12 -12 -20 -2 -8 -9 -30 -17 -49 -7 -19 -12 -38 -11 -42 1 -5 -3 -8
-8 -8 -5 0 -9 -3 -9 -7 1 -5 0 -11 -1 -15 -1 -5 -3 -11 -5 -15 -1 -5 -7 -21
-14 -38 -7 -16 -14 -37 -16 -45 -2 -8 -4 -16 -5 -17 -2 -2 -3 -8 -4 -13 0 -6
-7 -15 -15 -19 -10 -7 -10 -10 -1 -16 9 -6 9 -9 1 -15 -7 -3 -14 -20 -17 -35
-3 -16 -10 -35 -16 -42 -6 -7 -8 -13 -4 -13 4 0 0 -13 -8 -29 -9 -16 -12 -31
-9 -35 4 -3 1 -6 -5 -6 -6 0 -9 -9 -7 -20 2 -11 -1 -22 -6 -25 -5 -4 -7 -11
-4 -16 4 -5 1 -9 -5 -9 -6 0 -9 -4 -5 -9 3 -5 0 -13 -6 -16 -5 -4 -8 -13 -5
-20 3 -8 -1 -18 -8 -24 -8 -6 -13 -23 -13 -37 0 -15 -6 -30 -13 -34 -10 -6
-10 -8 0 -12 9 -3 9 -8 -3 -20 -9 -8 -14 -18 -12 -20 9 -8 -16 -78 -26 -73 -5
4 -5 -3 0 -18 6 -14 7 -28 3 -31 -3 -4 -8 -19 -10 -34 -2 -15 -9 -30 -15 -34
-9 -5 -9 -8 -1 -8 8 0 8 -10 -1 -37 -7 -21 -11 -46 -10 -55 2 -10 0 -18 -4
-18 -4 0 -8 -6 -8 -12 -1 -35 -12 -109 -18 -118 -3 -5 -1 -10 6 -10 8 0 8 -4
1 -12 -11 -15 -13 -327 -2 -343 4 -5 7 -30 7 -53 0 -24 4 -47 9 -50 5 -4 9
-14 9 -22 -1 -8 5 -27 12 -42 16 -32 16 -41 3 -33 -6 4 -1 -10 10 -29 11 -20
20 -39 20 -44 0 -4 8 -25 17 -47 23 -54 23 -66 -1 -92 -11 -13 -16 -23 -12
-23 4 0 1 -7 -6 -15 -30 -33 -38 -45 -38 -55 0 -5 -4 -10 -10 -10 -5 0 -10 -6
-10 -13 0 -7 -10 -23 -23 -37 -13 -14 -23 -28 -23 -32 1 -4 -7 -17 -16 -28
-10 -11 -18 -25 -18 -30 0 -6 -5 -10 -12 -10 -6 0 -8 -3 -5 -6 4 -4 -3 -15
-14 -25 -11 -9 -20 -20 -19 -23 1 -8 -30 -57 -47 -74 -7 -7 -13 -17 -13 -22 0
-5 -6 -15 -12 -22 -27 -28 -68 -87 -68 -98 0 -6 -7 -13 -15 -16 -8 -4 -15 -15
-15 -26 0 -10 -4 -16 -10 -13 -5 3 -10 1 -10 -4 0 -13 -41 -61 -51 -61 -4 0
-6 10 -3 23 3 12 8 33 11 47 3 14 6 31 6 38 0 6 3 12 7 12 7 0 10 15 12 68 1
17 6 32 11 32 5 0 7 6 4 14 -3 7 0 19 6 25 8 8 8 11 -1 11 -13 0 -4 31 12 43
7 5 6 10 -4 17 -8 5 -10 10 -4 10 7 0 10 13 9 30 -1 17 1 32 5 35 4 3 7 21 6
40 -1 19 3 35 9 35 5 0 3 5 -5 10 -8 5 -10 10 -4 10 6 0 12 25 13 57 1 32 5
60 9 63 4 3 7 41 7 85 0 44 5 83 10 88 6 4 4 11 -5 17 -8 5 -10 10 -4 10 8 0
10 42 8 143 -6 223 -8 246 -17 240 -5 -3 -7 0 -5 8 3 8 1 28 -4 44 -14 46 -20
69 -20 83 -1 6 -5 12 -10 12 -4 0 -8 14 -8 30 0 17 -5 30 -11 30 -5 0 -7 5 -4
10 4 6 1 18 -7 27 -9 12 -9 15 -1 9 9 -5 11 -2 7 8 -3 9 -10 16 -14 16 -4 0
-11 12 -15 27 -3 15 -18 53 -32 83 -14 30 -24 57 -23 59 1 2 -3 7 -10 11 -6 4
-12 17 -13 28 -1 12 -4 22 -8 22 -4 0 -10 14 -14 30 -4 17 -10 30 -15 30 -5 0
-7 9 -5 20 2 11 0 18 -6 15 -5 -4 -9 5 -9 19 0 14 -4 26 -9 26 -5 0 -15 23
-22 50 -7 28 -16 50 -21 50 -4 0 -8 12 -8 28 0 38 -30 53 -96 51 -29 -1 -52
-5 -49 -7 2 -3 -3 -12 -13 -21 -9 -9 -18 -24 -20 -35 -2 -10 -8 -30 -14 -45
-11 -26 -14 -35 -16 -59 -1 -7 -6 -10 -12 -7 -6 3 -7 -1 -4 -10 4 -8 0 -23 -7
-32 -8 -9 -13 -18 -11 -20 3 -3 -38 -139 -55 -183 -4 -8 -7 -18 -8 -22 -2 -5
-4 -10 -5 -13 -4 -8 -7 -24 -9 -41 -1 -9 -6 -12 -13 -8 -7 4 -10 4 -6 -1 4 -4
1 -22 -7 -40 -7 -19 -11 -36 -7 -39 3 -3 1 -6 -5 -6 -6 0 -14 -7 -17 -16 -4
-9 -2 -13 5 -8 6 3 4 -5 -6 -19 -9 -14 -17 -37 -19 -51 -1 -14 -6 -29 -9 -33
-4 -3 -7 -15 -7 -25 0 -10 -4 -18 -9 -18 -5 0 -8 -11 -6 -25 1 -14 -2 -25 -6
-25 -5 0 -9 -9 -9 -19 0 -11 -5 -23 -11 -26 -6 -4 -8 -13 -5 -21 3 -8 2 -14
-2 -14 -4 0 -9 -10 -9 -22 -1 -13 -6 -24 -11 -26 -6 -2 -8 -11 -5 -21 2 -9 -3
-23 -11 -31 -12 -10 -14 -16 -5 -26 9 -11 8 -14 -1 -14 -8 0 -11 -3 -7 -6 3
-3 -1 -25 -10 -47 -8 -23 -17 -53 -19 -67 -3 -13 -8 -27 -12 -30 -11 -8 -11
-40 0 -40 5 0 2 -7 -6 -16 -9 -8 -14 -20 -10 -25 3 -6 0 -16 -6 -24 -7 -8 -10
-22 -6 -30 3 -8 1 -15 -4 -15 -6 0 -9 -3 -9 -7 1 -5 0 -10 -1 -13 -1 -3 -3
-16 -5 -30 -1 -14 -6 -43 -10 -65 -5 -22 -8 -52 -9 -67 -1 -16 -3 -28 -6 -28
-6 0 -8 -11 -13 -70 -2 -20 -6 -41 -10 -47 -4 -6 -4 -18 -1 -27 3 -9 1 -16 -6
-16 -6 0 -8 -4 -5 -10 11 -18 14 -50 5 -50 -5 0 -7 -9 -5 -20 2 -11 0 -20 -4
-20 -11 0 -8 -44 4 -52 6 -5 5 -8 -3 -8 -7 0 -10 -5 -7 -10 4 -6 1 -18 -7 -27
-7 -9 -8 -14 -2 -10 8 5 12 -16 12 -68 0 -56 -2 -73 -11 -68 -9 5 -9 3 -1 -8
7 -8 12 -45 13 -83 0 -38 4 -72 8 -75 10 -8 10 -32 0 -48 -5 -7 -4 -13 0 -13
8 0 10 -10 14 -67 1 -16 5 -33 10 -39 6 -7 9 -16 8 -20 -1 -5 0 -11 1 -14 3
-8 9 -44 12 -70 2 -14 8 -28 13 -32 6 -5 5 -8 -3 -8 -7 0 -10 -5 -7 -10 4 -6
1 -18 -7 -27 -9 -12 -9 -15 0 -9 8 5 12 0 12 -15 0 -48 35 -119 58 -119 10 0
36 -58 33 -72 0 -5 4 -8 10 -8 5 0 7 -4 4 -10 -3 -5 -1 -10 4 -10 20 0 12 -18
-20 -47 -18 -15 -47 -42 -65 -60 -19 -18 -34 -30 -34 -27 0 6 -25 -14 -48 -38
-9 -10 -22 -18 -29 -18 -7 0 -13 -4 -13 -8 0 -9 -88 -73 -95 -69 -2 1 -12 -8
-20 -20 -9 -13 -23 -23 -31 -23 -8 0 -14 -5 -14 -12 0 -6 -3 -9 -6 -6 -3 3
-17 -5 -31 -18 -14 -13 -29 -21 -34 -18 -5 3 -9 1 -9 -4 0 -10 -136 -92 -151
-92 -5 0 -9 -4 -9 -10 0 -5 -7 -10 -15 -10 -8 0 -15 -4 -15 -9 0 -5 -11 -12
-25 -15 -14 -4 -25 -11 -25 -16 0 -6 -4 -10 -9 -10 -7 0 -125 -74 -156 -98 -5
-4 -28 -19 -50 -32 -22 -13 -49 -32 -59 -42 -10 -9 -22 -15 -26 -13 -5 3 -10
-2 -14 -10 -3 -8 -12 -15 -19 -15 -8 0 -26 -11 -41 -25 -14 -13 -30 -25 -34
-26 -10 -3 -56 -32 -62 -41 -3 -4 -11 -3 -18 1 -9 6 -7 12 8 26 11 10 20 23
20 30 0 7 9 20 20 30 11 10 17 21 15 26 -3 4 -1 10 4 13 17 11 52 89 47 103
-3 8 -2 12 2 9 8 -5 45 82 40 94 -1 3 4 15 10 27 7 12 15 39 18 60 3 21 9 42
12 48 3 5 7 18 8 30 4 38 13 75 19 85 3 5 0 10 -7 10 -8 0 -9 3 -3 8 6 4 12
25 14 47 2 22 8 43 14 47 8 5 7 8 -3 8 -10 0 -11 3 -4 8 6 4 12 25 12 47 1 65
7 113 14 120 4 4 3 17 -2 30 -5 13 -6 26 -3 29 4 3 8 99 10 212 2 114 6 211 9
215 3 5 2 9 -3 9 -7 0 -14 160 -13 333 0 21 -6 45 -14 52 -8 8 -16 20 -18 26
-6 19 -57 13 -77 -10 -10 -11 -21 -18 -25 -14 -3 3 -6 -1 -6 -10 0 -8 -12 -29
-27 -45 -16 -17 -45 -48 -65 -71 -21 -22 -38 -43 -38 -47 0 -3 -25 -30 -55
-60 -30 -30 -51 -54 -48 -54 3 0 -6 -11 -21 -25 -15 -14 -31 -25 -37 -25 -5 0
-8 -4 -6 -8 3 -12 -65 -92 -75 -86 -4 3 -8 0 -8 -7 0 -13 -82 -117 -137 -174
-6 -7 -21 -27 -32 -46 -12 -19 -21 -30 -21 -24 0 5 -8 -5 -17 -22 -10 -18 -28
-44 -40 -58 -13 -14 -23 -26 -22 -28 3 -13 -25 -57 -59 -93 -7 -7 -13 -17 -14
-21 -2 -18 -22 -53 -29 -53 -5 0 -6 -6 -3 -14 3 -7 -2 -20 -10 -29 -9 -9 -16
-23 -16 -32 0 -10 -5 -13 -12 -9 -7 4 -8 3 -4 -4 4 -6 1 -22 -6 -34 -7 -13
-13 -25 -13 -28 -9 -37 -19 -60 -26 -60 -5 0 -8 -3 -7 -7 3 -16 -15 -83 -23
-83 -4 0 -6 -9 -4 -20 2 -11 -1 -20 -7 -20 -6 0 -9 -3 -6 -6 3 -3 0 -28 -8
-56 -7 -28 -11 -55 -8 -60 3 -4 1 -8 -5 -8 -5 0 -8 -9 -6 -20 2 -11 0 -20 -4
-20 -4 0 -8 -15 -9 -32 -1 -18 -4 -49 -8 -68 -3 -19 -6 -50 -6 -67 0 -18 -3
-33 -7 -33 -3 0 -6 -32 -6 -71 0 -39 -3 -73 -8 -76 -4 -2 -4 -9 0 -16 3 -6 8
-31 9 -56 4 -59 13 -149 19 -181 12 -68 13 -90 5 -90 -21 0 -26 -2 -42 -17
-12 -10 -18 -12 -18 -4 0 8 -7 7 -23 -4 -12 -8 -32 -16 -44 -18 -12 -1 -29 -9
-39 -17 -13 -11 -16 -11 -10 -2 6 11 4 11 -13 3 -49 -26 -59 -29 -99 -36 -23
-4 -42 -10 -42 -15 0 -5 -8 -7 -17 -6 -10 2 -24 -4 -32 -11 -10 -11 -16 -12
-21 -3 -6 9 -9 9 -11 1 -2 -6 -13 -13 -25 -15 -41 -8 -109 -30 -121 -39 -7 -5
-17 -6 -23 -2 -5 3 -10 3 -10 -2 0 -4 -12 -9 -27 -10 -15 0 -29 -6 -31 -11 -2
-6 -14 -8 -28 -6 -13 2 -24 0 -24 -6 0 -5 -10 -10 -23 -10 -13 0 -27 -3 -31
-7 -4 -5 -11 -8 -14 -8 -18 -2 -118 -28 -127 -34 -5 -4 -17 -7 -25 -6 -8 0
-17 -3 -20 -7 -3 -4 -15 -9 -27 -11 -12 -1 -29 -9 -39 -17 -11 -9 -15 -10 -10
-2 9 15 6 15 -38 -3 -20 -9 -41 -13 -46 -10 -4 3 -10 1 -12 -5 -1 -5 -15 -11
-30 -12 -16 -1 -28 -6 -28 -10 0 -4 -11 -8 -23 -8 -13 0 -27 -3 -31 -7 -6 -7
-24 -11 -58 -15 -10 -1 -18 -6 -18 -10 0 -4 -11 -8 -24 -8 -14 0 -27 -4 -31
-10 -3 -5 -12 -7 -20 -3 -8 3 -15 1 -15 -5 0 -6 -8 -9 -17 -7 -10 1 -24 -2
-31 -8 -7 -5 -15 -7 -19 -4 -3 4 -14 2 -25 -4 -19 -10 -60 -21 -85 -22 -7 0
-15 -7 -17 -14 -3 -8 -11 -11 -16 -8 -6 4 -17 1 -25 -5 -8 -6 -18 -9 -24 -6
-5 3 -11 0 -14 -6 -3 -10 -7 -10 -17 -1 -9 9 -3 20 31 50 24 21 71 66 105 99
35 34 66 59 70 55 4 -3 4 -1 1 5 -3 6 17 35 44 65 28 30 60 71 71 91 12 21 26
38 30 38 5 0 6 4 3 10 -3 5 -2 10 3 10 10 0 98 171 94 183 -1 4 2 7 8 7 6 0 9
3 8 8 -3 8 53 154 62 162 5 5 6 14 12 68 1 12 6 22 11 22 4 0 5 5 2 10 -3 6
-2 10 2 10 5 0 9 10 10 22 1 11 7 24 13 28 6 4 10 11 9 16 -2 9 8 58 18 84 4
8 7 17 8 20 1 3 5 24 10 48 4 23 11 42 16 42 5 0 6 7 3 15 -3 8 -2 20 2 27 9
14 10 19 12 61 1 16 6 26 10 23 5 -3 6 8 4 25 -2 16 0 29 4 29 5 0 8 20 7 45
0 28 3 45 10 45 7 0 5 5 -3 10 -8 5 -10 10 -4 10 6 0 10 43 10 125 -1 69 3
125 7 125 5 0 6 4 3 9 -4 5 -2 21 4 35 7 18 6 26 -1 26 -8 0 -8 4 0 13 6 8 13
24 15 38 3 13 5 26 6 29 2 3 2 8 1 13 0 4 3 7 8 7 14 0 19 62 8 87 -10 23 -54
37 -92 29 -11 -3 -24 -5 -28 -5 -5 -1 -5 -5 -2 -11 3 -5 1 -10 -5 -10 -6 0
-15 -11 -20 -25 -5 -14 -14 -25 -20 -25 -5 0 -10 -5 -10 -12 0 -6 -22 -33 -50
-60 -27 -27 -50 -53 -50 -58 0 -6 -4 -10 -9 -10 -5 0 -16 -6 -23 -13 -31 -29
-121 -97 -130 -97 -5 0 -6 -4 -3 -10 3 -5 -1 -10 -10 -10 -8 0 -18 -7 -21 -15
-4 -8 -12 -15 -20 -15 -7 0 -18 -8 -23 -17 -6 -10 -11 -14 -11 -9 0 5 -11 -1
-25 -14 -14 -13 -25 -20 -25 -16 0 4 -6 1 -14 -6 -8 -7 -12 -16 -9 -20 2 -5
-2 -8 -9 -8 -7 0 -26 -11 -43 -25 -41 -34 -43 -35 -103 -83 -30 -23 -51 -42
-47 -42 4 0 -8 -13 -28 -29 -20 -15 -34 -31 -30 -35 3 -3 1 -6 -5 -6 -14 0
-52 -36 -52 -49 0 -5 -9 -13 -20 -16 -11 -4 -18 -10 -15 -15 3 -5 -5 -17 -17
-27 -31 -24 -162 -183 -152 -183 5 0 -2 -7 -14 -16 -12 -8 -22 -22 -22 -30 0
-8 -4 -14 -10 -14 -5 0 -10 -7 -10 -15 0 -8 -3 -15 -7 -15 -10 0 -123 -202
-134 -238 -8 -29 -12 -40 -25 -64 -8 -15 -15 -31 -15 -35 1 -26 -13 -83 -19
-83 -5 0 -7 -11 -6 -25 2 -15 -1 -22 -7 -18 -6 4 -8 0 -4 -9 3 -9 -1 -27 -8
-42 -8 -15 -10 -24 -5 -21 6 4 10 1 10 -4 0 -6 -3 -11 -7 -11 -5 0 -8 -15 -7
-32 0 -18 -3 -37 -7 -43 -4 -5 -6 -21 -5 -35 1 -14 -3 -28 -9 -32 -6 -5 -5 -8
4 -8 11 0 11 -3 1 -15 -7 -8 -9 -15 -5 -15 4 0 3 -6 -3 -13 -7 -8 -7 -18 -2
-27 5 -8 5 -21 -1 -32 -7 -12 -6 -18 1 -18 7 0 7 -6 0 -21 -7 -11 -9 -27 -6
-35 3 -8 2 -14 -2 -14 -4 0 -6 -31 -4 -70 2 -38 7 -70 11 -70 5 0 7 -12 5 -27
-1 -15 2 -36 9 -47 14 -26 19 -56 9 -55 -19 3 -33 -2 -27 -11 4 -6 -1 -7 -11
-3 -10 4 -15 2 -11 -4 3 -5 1 -10 -6 -11 -44 -3 -70 -10 -76 -20 -7 -12 -61
-36 -74 -34 -4 1 -7 -2 -7 -8 0 -6 -3 -9 -7 -8 -10 3 -127 -55 -131 -65 -2 -4
-8 -5 -13 -1 -5 3 -9 1 -9 -4 0 -9 -37 -25 -52 -23 -5 1 -8 -3 -8 -9 0 -5 -7
-10 -15 -10 -8 0 -15 -4 -15 -8 0 -4 -12 -13 -27 -20 -42 -19 -116 -62 -134
-78 -8 -8 -21 -14 -27 -14 -7 0 -12 -5 -12 -12 0 -6 -3 -8 -7 -5 -3 4 -15 0
-25 -10 -10 -9 -18 -13 -18 -10 0 4 -9 -1 -19 -10 -36 -33 -49 -42 -53 -37 -3
2 -13 -5 -23 -16 -10 -11 -22 -20 -27 -20 -5 0 -18 -8 -29 -18 -10 -11 -32
-25 -47 -33 -15 -7 -35 -21 -45 -31 -10 -10 -22 -16 -27 -13 -4 3 -11 -2 -14
-11 -3 -8 -10 -13 -15 -10 -5 3 -12 -1 -15 -10 -3 -8 -10 -13 -15 -10 -5 3
-12 -1 -15 -10 -3 -8 -10 -13 -15 -10 -5 4 -11 2 -13 -3 -1 -5 -9 -11 -17 -13
-7 -2 -25 -13 -39 -25 -14 -13 -31 -23 -38 -23 -8 0 -14 -4 -14 -10 0 -5 -6
-10 -14 -10 -7 0 -19 -7 -26 -15 -7 -8 -16 -12 -21 -10 -4 3 -13 -4 -19 -15
-6 -11 -16 -20 -22 -20 -17 0 -118 -70 -118 -82 0 -6 -3 -8 -6 -5 -8 8 -94
-53 -94 -66 0 -6 -3 -7 -7 -4 -3 4 -16 -5 -29 -18 -13 -14 -26 -25 -30 -25
-12 0 -73 -58 -67 -64 4 -3 2 -6 -4 -6 -5 0 -22 -11 -37 -25 -15 -14 -25 -25
-22 -25 3 0 -7 -13 -22 -28 -49 -52 -70 -80 -65 -86 4 -3 2 -6 -4 -6 -6 0 -22
-17 -35 -37 -12 -20 -28 -44 -33 -52 -48 -73 -65 -102 -65 -107 0 -4 -10 -23
-22 -43 -12 -19 -23 -42 -25 -50 -1 -8 -7 -17 -13 -21 -6 -3 -12 -15 -14 -26
-2 -11 -13 -37 -25 -57 -11 -20 -18 -37 -14 -37 4 0 2 -5 -5 -12 -7 -7 -12
-20 -12 -30 0 -10 -5 -18 -11 -18 -5 0 -7 -4 -4 -10 3 -5 2 -10 -4 -10 -5 0
-8 -8 -6 -17 1 -10 -4 -30 -12 -45 -7 -16 -11 -28 -7 -28 4 0 2 -6 -4 -12 -6
-7 -10 -15 -10 -18 -1 -3 -6 -18 -12 -35 -17 -43 -20 -65 -10 -65 5 0 7 -6 4
-14 -5 -14 23 -26 64 -26 21 0 53 21 53 35 -1 21 13 65 20 65 5 0 8 3 7 8 -3
14 36 122 44 122 5 0 7 4 3 9 -3 5 -1 12 5 16 6 4 8 11 5 16 -4 5 -1 9 6 9 7
0 10 3 6 6 -3 4 1 21 10 38 10 17 16 34 15 39 -1 4 3 7 9 7 5 0 8 4 5 9 -3 5
1 14 9 21 8 7 12 16 9 21 -3 5 0 9 5 9 6 0 11 7 11 15 0 8 5 15 11 15 5 0 7 5
4 10 -3 6 -1 10 5 10 6 0 8 5 5 10 -3 6 -1 10 4 10 6 0 11 7 11 15 0 8 5 15
11 15 5 0 8 4 4 9 -3 5 0 15 7 23 7 7 19 25 27 41 8 15 18 27 23 27 4 0 8 6 8
13 0 7 9 19 20 27 11 8 20 19 20 26 0 12 78 101 134 153 22 20 51 47 65 61 15
14 30 26 35 26 4 1 19 11 32 23 13 12 27 21 30 21 4 0 15 10 25 22 11 11 19
18 19 15 0 -8 157 95 185 120 11 10 22 19 25 19 20 3 50 17 50 24 0 4 8 11 18
14 20 8 47 23 89 54 17 12 36 22 41 22 5 0 13 7 16 16 3 8 10 13 14 10 5 -3
14 4 22 14 8 10 17 17 22 14 4 -3 8 -1 8 4 0 5 13 15 29 22 16 6 32 18 35 26
3 8 11 14 17 14 6 0 34 19 62 43 28 23 52 40 54 37 1 -3 12 3 23 12 11 10 25
18 30 18 6 0 16 11 22 25 8 19 14 22 20 13 6 -10 8 -8 8 4 0 11 5 15 14 12 8
-3 17 0 21 5 3 6 10 9 15 6 5 -3 11 3 15 14 3 10 18 21 33 24 15 3 38 15 51
26 13 12 30 21 38 21 7 0 13 3 13 8 0 11 52 32 63 25 6 -3 7 -1 4 4 -4 7 12
19 38 30 25 10 45 21 45 26 0 4 8 7 18 7 9 0 26 7 36 15 11 8 28 15 38 15 10
0 18 4 18 10 0 5 12 13 28 16 15 4 55 20 89 35 34 15 64 25 67 22 3 -4 6 -1 6
5 0 6 9 9 20 7 11 -2 20 0 20 4 0 4 19 14 43 21 23 8 47 16 52 19 6 3 15 6 20
8 6 1 20 4 32 7 12 2 41 13 65 24 24 10 49 17 56 14 6 -2 12 1 12 6 0 5 12 12
27 15 52 10 62 13 69 20 4 4 18 7 30 7 13 0 26 5 29 10 4 6 11 8 16 5 5 -4 9
-2 9 3 0 4 14 8 31 8 25 0 45 -14 104 -70 40 -39 81 -78 91 -86 11 -8 33 -26
50 -40 17 -14 43 -34 58 -45 16 -11 33 -25 40 -30 6 -6 32 -24 58 -40 27 -17
48 -34 48 -38 0 -5 4 -6 9 -3 5 3 14 -1 21 -9 7 -8 19 -15 27 -15 8 0 11 -5 7
-12 -4 -6 -3 -8 3 -5 5 3 26 -5 46 -18 20 -14 41 -25 46 -25 6 0 11 -4 11 -10
0 -5 7 -10 15 -10 15 0 54 -19 65 -31 8 -8 69 -31 74 -28 2 2 14 -5 26 -16 12
-11 24 -18 26 -15 2 3 12 -3 24 -12 13 -12 20 -14 20 -5 0 9 2 9 8 0 4 -7 17
-14 27 -16 11 -2 38 -11 60 -21 22 -10 48 -18 58 -19 9 -1 17 -4 17 -8 0 -4
12 -9 28 -12 58 -11 77 -17 80 -27 3 -7 9 -7 19 2 12 10 17 9 24 -5 5 -9 16
-14 24 -10 9 3 21 0 29 -6 8 -7 18 -11 22 -9 5 1 29 -2 54 -7 25 -5 50 -9 55
-10 6 -1 15 -3 20 -5 6 -1 24 -3 40 -5 17 -1 33 -3 38 -5 4 -1 16 -4 27 -5 11
-1 23 -3 28 -5 4 -1 27 -2 52 -2 25 0 53 -5 64 -10 13 -7 16 -7 12 1 -6 10 32
7 72 -5 6 -2 12 2 12 9 0 7 3 8 8 2 8 -12 42 -13 60 -2 6 5 12 4 12 0 0 -5 15
-8 33 -6 64 8 153 14 182 15 17 0 37 2 45 5 8 4 37 7 64 9 27 1 53 8 57 16 7
10 9 10 9 0 0 -10 5 -10 20 -2 15 8 20 8 20 -1 0 -8 3 -9 14 0 7 6 27 13 45
16 17 3 45 7 62 10 22 3 28 1 24 -8 -4 -6 -1 -5 7 3 14 16 33 23 61 22 9 0 17
5 17 11 0 7 4 6 10 -3 5 -8 10 -10 10 -5 0 6 10 11 22 12 11 1 25 8 29 15 6 9
9 9 9 1 0 -6 9 -9 20 -6 11 3 20 9 20 13 0 5 9 6 20 3 11 -3 20 -1 20 4 0 5
10 9 23 8 12 -1 29 2 37 6 32 16 163 50 176 45 8 -3 13 0 11 6 -2 11 13 15 66
21 9 1 17 5 17 9 0 4 9 8 20 8 11 0 20 4 20 8 0 5 9 19 20 32 32 37 26 83 -14
114 -19 14 -39 26 -43 26 -5 0 -29 9 -52 21 -24 11 -51 21 -62 22 -10 1 -19 5
-19 9 0 4 -3 7 -7 7 -5 -1 -10 -1 -13 1 -3 1 -16 3 -29 6 -14 2 -29 8 -35 13
-6 5 -19 7 -29 6 -9 -2 -15 0 -12 5 3 4 -9 13 -25 19 -17 5 -30 8 -30 5 0 -3
-12 4 -26 15 -15 11 -30 18 -34 16 -5 -3 -11 -1 -15 5 -3 5 -17 10 -30 10 -13
0 -25 4 -27 9 -1 5 -10 11 -18 13 -8 2 -21 9 -28 16 -8 7 -18 10 -23 7 -5 -4
-9 -1 -9 5 0 6 -4 9 -9 5 -5 -3 -17 2 -25 11 -9 8 -16 12 -16 7 0 -4 -4 -3 -8
2 -10 14 -50 36 -75 41 -11 2 -23 7 -26 12 -3 5 -37 24 -76 43 -38 18 -71 37
-73 41 -2 5 -10 8 -18 8 -17 0 -56 21 -66 35 -4 6 -8 6 -8 1 0 -5 -7 -3 -15 4
-8 6 -19 9 -25 5 -5 -3 -10 -2 -10 2 0 9 -69 39 -82 35 -5 -1 -8 3 -8 9 0 6
-7 8 -16 5 -8 -3 -12 -2 -9 4 3 6 -3 10 -14 10 -11 0 -26 7 -35 15 -8 8 -26
16 -40 17 -14 1 -26 5 -26 9 0 4 -14 9 -30 12 -45 9 -54 12 -70 22 -8 5 -21
10 -30 11 -8 1 -26 5 -40 9 -45 11 -75 17 -87 18 -7 0 -13 4 -13 8 0 4 -9 6
-20 4 -11 -2 -22 0 -24 4 -3 4 -19 6 -35 5 -17 -1 -31 1 -31 4 0 7 -18 10 -95
13 -25 1 -47 5 -50 9 -2 3 -38 5 -79 4 -42 -1 -78 2 -81 7 -3 5 2 6 11 2 12
-4 15 -3 10 5 -5 8 2 12 23 12 16 0 32 4 36 9 3 6 14 8 25 6 11 -2 20 0 20 6
0 5 11 9 25 9 14 0 25 4 25 8 0 4 8 9 18 9 57 6 68 9 80 21 7 6 22 12 33 12
11 0 33 7 48 15 16 8 31 11 34 8 4 -3 13 0 22 7 8 7 15 9 15 5 0 -4 7 -2 15 5
9 7 18 10 22 7 3 -4 13 -1 21 5 15 13 23 15 57 20 11 2 23 7 26 11 3 4 16 9
27 10 12 1 22 5 22 9 0 4 3 7 7 7 5 -1 11 0 16 1 4 1 10 3 15 5 4 1 15 5 25 8
9 4 25 10 35 14 9 3 19 7 22 8 3 1 13 5 22 9 9 4 22 9 30 10 7 2 31 11 53 21
22 10 45 19 50 20 6 0 42 16 80 35 39 19 73 33 78 32 4 -1 7 3 7 8 0 5 3 10 8
9 15 -2 52 14 52 23 0 5 4 7 9 4 5 -3 14 1 21 9 7 8 16 13 20 10 5 -3 14 1 22
8 13 13 45 29 61 31 4 1 11 7 16 14 5 8 11 14 14 14 19 0 47 12 47 19 0 5 4 9
9 9 11 0 110 59 129 78 8 7 18 10 23 7 5 -4 9 1 9 10 0 9 5 13 10 10 6 -3 10
-1 10 5 0 6 4 9 9 6 4 -3 19 3 31 14 12 11 27 17 31 14 5 -3 9 2 9 11 0 9 4
14 9 11 5 -3 14 1 21 9 7 8 19 15 26 15 8 0 14 4 14 8 0 5 16 14 35 22 19 7
32 17 29 22 -3 4 3 8 14 8 10 0 31 11 46 25 14 13 26 21 26 18 0 -3 7 0 15 7
8 7 15 9 15 6 0 -4 6 -2 13 4 21 18 132 85 146 88 7 1 22 -7 32 -19 11 -13 19
-17 19 -9 0 8 8 4 19 -8 10 -12 21 -19 25 -15 3 3 6 1 6 -5 0 -6 8 -13 19 -17
10 -3 29 -14 41 -25 12 -11 27 -17 31 -14 5 3 9 0 9 -6 0 -6 5 -8 10 -5 6 3
10 -1 10 -9 0 -9 8 -16 19 -16 11 0 23 -5 26 -11 6 -10 40 -26 58 -27 4 -1 19
-10 34 -22 14 -11 32 -20 39 -20 8 0 14 -5 14 -11 0 -5 5 -7 10 -4 6 3 17 -1
26 -9 9 -9 20 -14 25 -11 5 4 9 1 9 -5 0 -6 4 -9 9 -5 5 3 12 1 16 -5 4 -6 10
-8 15 -5 5 3 11 1 15 -5 4 -6 11 -8 16 -5 5 4 9 1 9 -4 0 -6 11 -11 24 -11 14
0 27 -4 31 -9 3 -6 14 -8 25 -6 11 2 22 0 25 -5 3 -5 14 -7 25 -5 11 2 20 -1
20 -7 0 -5 6 -8 14 -5 8 3 17 3 20 -1 6 -6 13 -7 76 -16 19 -2 47 -9 63 -15
18 -7 27 -7 27 0 0 6 6 6 18 1 9 -5 25 -8 35 -7 9 2 17 0 17 -3 0 -4 31 -7 70
-6 38 0 70 -3 70 -6 0 -10 44 -6 52 5 5 6 8 6 8 -1 0 -13 31 -14 48 -1 6 5 12
5 12 0 0 -5 9 -9 20 -10 11 -1 18 2 16 6 -3 4 1 8 9 8 8 0 15 -4 15 -9 0 -5 8
-5 18 0 9 4 47 8 84 8 38 -1 68 3 68 7 0 5 4 6 9 3 5 -4 12 0 14 6 4 10 6 10
6 1 1 -9 8 -10 26 -3 17 6 25 6 25 -1 0 -6 5 -7 13 -2 6 4 15 8 20 9 4 1 8 3
10 4 1 1 16 4 32 5 42 5 97 15 115 22 8 3 22 7 30 8 8 1 29 6 45 10 17 4 42 8
57 8 14 1 24 5 21 9 -2 5 2 9 9 9 7 1 18 2 23 4 6 1 20 3 32 3 12 1 28 9 36
17 8 8 17 12 20 9 3 -3 21 2 41 10 20 8 36 13 36 10 0 -2 10 2 23 11 13 8 27
12 30 8 4 -3 7 -1 7 5 0 7 3 11 8 10 4 0 16 2 27 7 99 40 239 107 243 117 2 5
9 5 14 2 6 -4 16 -1 22 7 6 8 38 28 71 44 32 17 68 38 79 48 11 9 25 17 32 17
7 0 18 8 23 18 6 9 11 13 11 9 0 -5 13 1 29 12 16 12 33 21 38 21 5 0 15 9 23
20 8 11 20 20 28 20 7 0 15 7 18 15 4 8 10 12 15 9 5 -3 12 2 15 10 3 9 10 13
15 10 5 -3 9 0 9 6 0 6 5 8 10 5 6 -3 10 2 10 11 0 10 3 14 6 11 4 -4 21 6 39
21 18 15 44 35 59 46 27 20 61 76 45 76 -5 0 -12 12 -15 26 -5 20 -20 32 -61
50 -29 13 -60 24 -68 24 -8 0 -15 5 -15 11 0 5 -4 7 -10 4 -5 -3 -10 -1 -10 5
0 7 -6 10 -12 7 -7 -2 -28 5 -46 15 -18 10 -44 19 -58 20 -13 1 -24 6 -24 10
0 4 -13 8 -30 8 -16 0 -30 5 -30 12 0 6 -3 9 -6 6 -3 -4 -20 -2 -37 3 -34 11
-76 19 -117 24 -14 1 -33 6 -42 10 -9 4 -22 4 -28 0 -5 -3 -10 -2 -10 4 0 5
-8 8 -17 6 -10 -1 -26 2 -37 7 -14 7 -16 7 -11 -2 6 -9 3 -9 -13 -1 -10 6 -43
12 -71 13 -28 2 -51 7 -51 12 0 5 -7 3 -15 -4 -8 -7 -15 -8 -15 -3 0 5 -28 10
-62 11 -35 0 -63 1 -63 2 0 1 -15 3 -33 6 -25 3 -31 1 -26 -9 6 -9 4 -9 -7 -1
-8 6 -41 10 -74 10 -33 -1 -63 3 -67 8 -4 6 -13 5 -22 -3 -9 -8 -16 -9 -16 -3
0 11 -39 10 -58 -2 -6 -3 -13 -2 -16 3 -7 10 -25 9 -43 -2 -8 -5 -13 -3 -13 4
0 8 -4 8 -15 -1 -8 -7 -15 -9 -15 -5 0 4 -6 2 -13 -4 -8 -6 -17 -8 -20 -5 -7
8 -167 11 -167 4 0 -3 -20 -5 -45 -4 -25 0 -48 -3 -51 -8 -3 -4 -14 -3 -25 2
-13 7 -19 7 -19 0 0 -12 -22 -9 -32 5 -5 7 -8 6 -8 0 0 -14 -38 -17 -45 -4 -4
5 -15 4 -28 -3 -12 -6 -46 -12 -77 -14 -30 -1 -55 -3 -55 -4 0 -4 -43 -12 -72
-13 -18 -1 -33 -5 -33 -8 0 -4 -10 -7 -22 -7 -13 0 -34 -3 -48 -6 -14 -3 -45
-8 -70 -12 -25 -3 -53 -10 -62 -15 -20 -11 -35 6 -15 18 7 4 20 18 28 29 8 12
19 23 24 24 6 2 19 16 31 31 11 16 24 26 27 22 4 -3 7 1 7 9 0 9 9 18 20 21
11 3 19 11 18 19 -2 7 3 12 10 11 6 -2 12 1 12 7 0 5 30 41 68 79 37 38 83 88
102 112 19 23 52 60 73 83 21 23 42 51 48 64 5 13 13 21 18 17 5 -3 12 3 16
14 3 10 17 31 30 47 14 16 38 47 53 69 15 22 29 42 32 45 14 13 57 76 56 80
-1 3 13 20 31 37 17 17 30 33 28 35 -2 2 9 19 25 38 17 19 30 39 30 43 0 4 4
13 10 20 47 57 60 76 60 86 0 6 5 11 10 11 6 0 10 7 10 15 0 8 5 15 11 15 5 0
7 5 4 10 -3 6 -1 10 4 10 6 0 11 6 11 14 0 8 7 17 16 20 8 3 12 10 9 16 -3 5
-1 10 4 10 6 0 11 7 11 15 0 8 4 15 9 15 5 0 16 15 26 33 33 63 42 77 48 71 3
-4 9 5 13 20 3 14 10 26 16 26 5 0 7 4 4 9 -3 5 1 11 9 15 8 3 15 12 15 19 0
8 9 26 21 41 11 14 18 26 15 26 -16 0 36 40 56 43 13 2 37 10 53 17 17 7 33
13 38 12 4 -1 7 3 7 9 0 5 5 7 12 3 6 -4 17 1 25 11 7 11 13 16 13 12 0 -4 18
4 40 18 22 14 44 25 49 25 5 0 11 3 13 8 2 4 28 26 58 48 56 42 146 124 136
124 -3 0 7 13 22 29 59 62 92 106 119 159 9 17 20 32 25 32 4 0 8 6 8 13 0 7
8 22 18 33 9 10 17 24 17 29 1 15 39 89 48 93 4 2 7 11 7 21 0 9 7 27 16 39 8
12 13 22 10 22 -2 0 7 28 21 63 14 34 27 73 30 87 2 13 10 28 16 32 7 4 8 8 3
8 -5 0 -3 6 3 14 9 11 9 15 -1 19 -10 4 -10 6 0 6 6 1 12 10 12 21 0 11 6 20
13 20 8 0 7 4 -3 10 -11 7 -11 10 -2 10 7 0 10 5 7 10 -3 6 -2 10 3 10 5 0 8
11 7 25 -2 14 1 25 7 25 6 0 8 9 5 20 -3 11 -1 23 4 26 5 3 7 10 4 15 -4 5 -2
9 3 9 5 0 8 10 7 23 -1 12 2 28 7 34 6 7 8 20 4 28 -3 8 -2 15 2 15 4 0 8 8 9
18 0 16 8 61 19 122 10 52 16 96 17 125 1 17 6 36 10 43 5 7 3 12 -4 12 -8 0
-8 4 -1 13 14 18 21 77 8 77 -7 0 -7 3 -1 8 8 6 13 173 5 192 -1 3 -3 25 -5
50 -1 25 -4 50 -5 55 -1 6 -1 12 0 15 7 18 7 40 0 40 -13 0 -19 39 -6 44 7 3
7 5 -2 5 -7 1 -10 6 -7 11 4 6 2 16 -3 23 -5 7 -9 23 -8 37 1 14 -2 31 -7 38
-5 6 -6 12 -2 12 4 0 2 6 -4 14 -9 11 -9 16 0 21 8 5 8 9 0 14 -6 4 -12 20
-15 37 -2 16 -6 36 -8 44 -23 68 -28 89 -27 97 1 4 0 10 -1 13 -1 3 -3 12 -5
20 -2 8 -8 29 -13 47 -6 17 -8 34 -4 37 3 3 -1 6 -8 6 -7 0 -10 3 -7 7 4 3 1
13 -6 21 -10 13 -9 14 2 8 9 -6 8 0 -4 17 -12 18 -13 27 -4 32 8 5 8 9 0 14
-6 4 -12 16 -14 26 -1 11 -6 25 -10 31 -3 6 -8 25 -9 43 -1 17 -7 31 -12 31
-5 0 -6 3 -3 7 4 3 1 13 -6 21 -10 13 -9 14 3 7 13 -8 13 -7 1 8 -13 16 -93
57 -112 57 -4 0 -17 -10 -29 -22z"/>
</g>
</svg>
